<svg xmlns="http://www.w3.org/2000/svg" xmlns:xlink="http://www.w3.org/1999/xlink" width="300" zoomAndPan="magnify" viewBox="0 0 224.87999 74.999997" height="100" preserveAspectRatio="xMidYMid meet" version="1.0"><defs><g/><clipPath id="9650e0dc21"><path d="M 13 0.0195312 L 40 0.0195312 L 40 36 L 13 36 Z M 13 0.0195312 " clip-rule="nonzero"/></clipPath></defs><g fill="#8cc63f" fill-opacity="1"><g transform="translate(88.001948, 39.744281)"><g><path d="M 1.34375 -0.363281 C 1.34375 -0.117188 1.457031 0 1.707031 0 L 3.382812 0 C 3.648438 0 3.761719 -0.117188 3.746094 -0.363281 L 3.746094 -8.554688 L 9.5 -0.265625 C 9.628906 -0.117188 9.714844 0 9.980469 0 L 11.621094 0 C 11.886719 0 12.019531 -0.117188 12.019531 -0.363281 L 12.019531 -11.933594 C 12.019531 -12.148438 11.785156 -12.300781 11.621094 -12.300781 L 9.945312 -12.300781 C 9.8125 -12.300781 9.648438 -12.25 9.582031 -12.050781 L 9.582031 -4.210938 L 4.128906 -12.050781 C 4.042969 -12.214844 3.8125 -12.300781 3.648438 -12.300781 L 1.707031 -12.300781 C 1.457031 -12.300781 1.34375 -12.132812 1.34375 -11.933594 Z M 1.34375 -0.363281 "/></g></g></g><g fill="#8cc63f" fill-opacity="1"><g transform="translate(101.146379, 39.744281)"><g/></g></g><g fill="#8cc63f" fill-opacity="1"><g transform="translate(106.334534, 39.744281)"><g><path d="M 3.597656 -11.933594 C 3.597656 -12.132812 3.382812 -12.300781 3.214844 -12.300781 L 1.507812 -12.300781 C 1.308594 -12.300781 1.160156 -12.101562 1.160156 -11.933594 L 1.160156 -4.855469 C 1.160156 -2.070312 3.429688 0.199219 6.234375 0.199219 C 9.015625 0.199219 11.289062 -2.070312 11.289062 -4.855469 L 11.289062 -11.933594 C 11.289062 -12.148438 11.074219 -12.300781 10.875 -12.300781 L 9.234375 -12.300781 C 9.015625 -12.300781 8.851562 -12.132812 8.851562 -11.933594 L 8.851562 -4.855469 C 8.851562 -3.316406 7.773438 -2.039062 6.234375 -2.039062 C 4.675781 -2.039062 3.597656 -3.316406 3.597656 -4.855469 Z M 3.597656 -11.933594 "/></g></g></g><g fill="#8cc63f" fill-opacity="1"><g transform="translate(118.799367, 39.744281)"><g/></g></g><g fill="#8cc63f" fill-opacity="1"><g transform="translate(123.987523, 39.744281)"><g><path d="M 0.347656 -10.410156 C 0.347656 -10.195312 0.449219 -10.078125 0.664062 -10.078125 L 3.761719 -10.078125 L 3.761719 -0.332031 C 3.761719 -0.117188 3.863281 0 4.078125 0 L 5.867188 0 C 6.082031 0 6.183594 -0.117188 6.183594 -0.332031 L 6.183594 -10.078125 L 9.367188 -10.078125 C 9.582031 -10.078125 9.695312 -10.195312 9.695312 -10.410156 L 9.695312 -11.984375 C 9.695312 -12.199219 9.582031 -12.300781 9.367188 -12.300781 L 0.664062 -12.300781 C 0.449219 -12.300781 0.347656 -12.199219 0.347656 -11.984375 Z M 0.347656 -10.410156 "/></g></g></g><g fill="#8cc63f" fill-opacity="1"><g transform="translate(134.115199, 39.744281)"><g/></g></g><g fill="#8cc63f" fill-opacity="1"><g transform="translate(139.303354, 39.744281)"><g><path d="M 1.34375 -0.332031 C 1.34375 -0.117188 1.441406 0 1.65625 0 L 3.429688 0 C 3.664062 0 3.761719 -0.117188 3.761719 -0.332031 L 3.761719 -4.261719 L 6.28125 -4.261719 L 8.253906 -0.28125 C 8.355469 -0.0664062 8.453125 0 8.636719 0 L 10.773438 0 C 10.988281 0 11.074219 -0.199219 10.988281 -0.347656 L 8.734375 -4.824219 C 9.980469 -5.554688 10.824219 -6.863281 10.824219 -8.253906 C 10.824219 -10.34375 9.199219 -12.300781 6.929688 -12.300781 L 1.65625 -12.300781 C 1.441406 -12.300781 1.34375 -12.148438 1.34375 -11.96875 Z M 6.347656 -10.160156 C 7.492188 -10.160156 8.355469 -9.347656 8.355469 -8.304688 C 8.355469 -7.226562 7.492188 -6.449219 6.347656 -6.449219 L 3.761719 -6.449219 L 3.761719 -10.160156 Z M 6.347656 -10.160156 "/></g></g></g><g fill="#8cc63f" fill-opacity="1"><g transform="translate(150.425563, 39.744281)"><g/></g></g><g fill="#8cc63f" fill-opacity="1"><g transform="translate(155.613719, 39.744281)"><g><path d="M 1.34375 -0.332031 C 1.34375 -0.117188 1.441406 0 1.675781 0 L 3.464844 0 C 3.679688 0 3.78125 -0.117188 3.78125 -0.332031 L 3.78125 -11.953125 C 3.78125 -12.167969 3.679688 -12.300781 3.464844 -12.300781 L 1.675781 -12.300781 C 1.457031 -12.300781 1.34375 -12.167969 1.34375 -11.953125 Z M 1.34375 -0.332031 "/></g></g></g><g fill="#8cc63f" fill-opacity="1"><g transform="translate(160.73557, 39.744281)"><g/></g></g><g fill="#8cc63f" fill-opacity="1"><g transform="translate(165.923726, 39.744281)"><g><path d="M 1.34375 -0.363281 C 1.34375 -0.117188 1.476562 0 1.707031 0 L 8.621094 0 C 8.867188 -0.015625 8.984375 -0.148438 8.984375 -0.363281 L 8.984375 -1.875 C 8.984375 -2.105469 8.820312 -2.253906 8.621094 -2.253906 L 3.78125 -2.253906 L 3.78125 -11.953125 C 3.761719 -12.199219 3.628906 -12.316406 3.414062 -12.316406 L 1.722656 -12.316406 C 1.492188 -12.316406 1.34375 -12.148438 1.34375 -11.953125 Z M 1.34375 -0.363281 "/></g></g></g><g fill="#8cc63f" fill-opacity="1"><g transform="translate(175.438099, 39.744281)"><g/></g></g><g fill="#8cc63f" fill-opacity="1"><g transform="translate(180.626255, 39.744281)"><g><path d="M 1.34375 -0.332031 C 1.34375 -0.117188 1.441406 0 1.675781 0 L 3.464844 0 C 3.679688 0 3.78125 -0.117188 3.78125 -0.332031 L 3.78125 -11.953125 C 3.78125 -12.167969 3.679688 -12.300781 3.464844 -12.300781 L 1.675781 -12.300781 C 1.457031 -12.300781 1.34375 -12.167969 1.34375 -11.953125 Z M 1.34375 -0.332031 "/></g></g></g><g fill="#8cc63f" fill-opacity="1"><g transform="translate(185.748106, 39.744281)"><g/></g></g><g fill="#8cc63f" fill-opacity="1"><g transform="translate(190.936262, 39.744281)"><g><path d="M 1.34375 -0.332031 C 1.34375 -0.117188 1.441406 0 1.65625 0 L 3.429688 0 C 3.664062 0 3.761719 -0.117188 3.761719 -0.332031 L 3.761719 -4.589844 L 8.222656 -4.589844 C 8.4375 -4.589844 8.535156 -4.707031 8.535156 -4.921875 L 8.535156 -6.449219 C 8.535156 -6.664062 8.4375 -6.78125 8.222656 -6.78125 L 3.761719 -6.78125 L 3.761719 -10.027344 L 9.597656 -10.027344 C 9.8125 -10.027344 9.929688 -10.144531 9.929688 -10.359375 L 9.929688 -11.96875 C 9.929688 -12.183594 9.8125 -12.300781 9.597656 -12.300781 L 1.65625 -12.300781 C 1.441406 -12.300781 1.34375 -12.183594 1.34375 -11.96875 Z M 1.34375 -0.332031 "/></g></g></g><g fill="#8cc63f" fill-opacity="1"><g transform="translate(201.329145, 39.744281)"><g/></g></g><g fill="#8cc63f" fill-opacity="1"><g transform="translate(206.5173, 39.744281)"><g><path d="M 1.34375 -0.332031 C 1.34375 -0.117188 1.441406 0 1.65625 0 L 9.914062 0 C 10.128906 0 10.261719 -0.117188 10.261719 -0.332031 L 10.261719 -1.921875 C 10.261719 -2.136719 10.128906 -2.253906 9.914062 -2.253906 L 3.761719 -2.253906 L 3.761719 -5.289062 L 8.335938 -5.289062 C 8.570312 -5.289062 8.703125 -5.402344 8.703125 -5.621094 L 8.703125 -7.195312 C 8.703125 -7.425781 8.554688 -7.527344 8.335938 -7.527344 L 3.761719 -7.527344 L 3.761719 -10.027344 L 9.761719 -10.027344 C 9.980469 -10.027344 10.09375 -10.144531 10.09375 -10.359375 L 10.09375 -11.96875 C 10.09375 -12.183594 9.980469 -12.300781 9.761719 -12.300781 L 1.65625 -12.300781 C 1.441406 -12.300781 1.34375 -12.183594 1.34375 -11.96875 Z M 1.34375 -0.332031 "/></g></g></g><path fill="#80cc28" d="M 62.976562 3.964844 C 57.140625 0.03125 48.925781 9.082031 47.820312 10.355469 C 47.738281 10.445312 47.667969 10.539062 47.597656 10.632812 C 43.539062 16.078125 44.257812 20.183594 45.144531 22.28125 C 45.699219 23.585938 45.597656 25.074219 44.914062 26.308594 C 43.730469 28.441406 41.84375 31.25 40.089844 33.753906 C 39.441406 34.667969 38.816406 35.546875 38.246094 36.332031 C 37.082031 37.9375 36.164062 39.148438 35.863281 39.542969 C 35.808594 39.621094 35.753906 39.695312 35.699219 39.773438 C 34.328125 41.828125 17.9375 58.855469 17.9375 58.855469 C 17.253906 59.625 16.695312 60.351562 16.234375 61.054688 C 13.007812 65.976562 20.207031 71.054688 23.765625 66.363281 C 24.273438 65.691406 24.78125 64.910156 25.277344 63.992188 C 25.277344 63.992188 37.304688 43.910156 38.769531 41.917969 C 38.824219 41.835938 38.878906 41.757812 38.933594 41.6875 C 39.148438 41.355469 39.710938 40.492188 40.476562 39.335938 C 40.96875 38.601562 41.546875 37.746094 42.179688 36.828125 C 44.078125 34.058594 46.433594 30.777344 48.277344 28.664062 C 49.210938 27.597656 50.574219 26.996094 51.988281 27.066406 C 54.25 27.183594 58.359375 26.457031 62.074219 20.800781 C 62.148438 20.691406 62.21875 20.570312 62.28125 20.453125 C 63.113281 18.902344 68.644531 8.09375 62.976562 3.964844 Z M 24.707031 62.535156 C 24.644531 62.734375 24.535156 63.011719 24.382812 63.335938 C 24.082031 63.984375 23.578125 64.804688 22.882812 65.496094 C 22.707031 65.660156 22.523438 65.828125 22.328125 65.976562 C 22.222656 66.046875 22.128906 66.121094 22.027344 66.183594 C 21.921875 66.246094 21.820312 66.300781 21.710938 66.355469 C 21.605469 66.410156 21.488281 66.453125 21.386719 66.492188 C 21.273438 66.523438 21.164062 66.5625 21.054688 66.578125 C 20.832031 66.617188 20.609375 66.632812 20.421875 66.601562 C 20.324219 66.59375 20.230469 66.570312 20.144531 66.546875 C 20.054688 66.523438 19.976562 66.492188 19.914062 66.460938 C 19.773438 66.402344 19.667969 66.308594 19.582031 66.253906 C 19.496094 66.191406 19.445312 66.121094 19.398438 66.078125 C 19.359375 66.039062 19.335938 66.015625 19.335938 66.015625 C 19.335938 66.015625 19.367188 66.03125 19.421875 66.046875 C 19.480469 66.0625 19.550781 66.09375 19.644531 66.128906 C 19.738281 66.152344 19.859375 66.191406 19.992188 66.199219 C 20.054688 66.214844 20.128906 66.214844 20.199219 66.214844 C 20.238281 66.214844 20.269531 66.214844 20.308594 66.214844 C 20.347656 66.214844 20.390625 66.207031 20.421875 66.199219 C 20.5 66.191406 20.578125 66.175781 20.65625 66.152344 C 20.738281 66.136719 20.816406 66.09375 20.902344 66.070312 C 20.980469 66.039062 21.070312 65.992188 21.15625 65.960938 C 21.234375 65.90625 21.324219 65.875 21.410156 65.8125 C 21.742188 65.589844 22.074219 65.3125 22.390625 64.996094 C 23.023438 64.371094 23.601562 63.660156 24.050781 63.121094 C 24.273438 62.851562 24.464844 62.628906 24.597656 62.472656 C 24.714844 62.328125 24.796875 62.242188 24.8125 62.226562 C 24.789062 62.25 24.765625 62.359375 24.707031 62.535156 Z M 63.660156 10.65625 C 63.59375 11.078125 63.507812 11.542969 63.398438 12.042969 C 63.285156 12.546875 63.152344 13.09375 62.992188 13.664062 C 62.828125 14.234375 62.644531 14.835938 62.410156 15.445312 C 62.296875 15.753906 62.179688 16.0625 62.042969 16.371094 C 61.925781 16.679688 61.777344 16.988281 61.632812 17.304688 C 61.492188 17.613281 61.324219 17.921875 61.167969 18.230469 C 60.992188 18.53125 60.835938 18.847656 60.652344 19.140625 C 60.46875 19.441406 60.28125 19.730469 60.082031 20.015625 C 59.980469 20.160156 59.882812 20.300781 59.78125 20.445312 C 59.671875 20.578125 59.566406 20.722656 59.464844 20.855469 C 59.046875 21.410156 58.5625 21.890625 58.089844 22.359375 C 57.835938 22.574219 57.597656 22.800781 57.34375 22.992188 C 57.082031 23.175781 56.839844 23.371094 56.585938 23.53125 C 56.449219 23.609375 56.324219 23.6875 56.207031 23.765625 C 56.078125 23.847656 55.960938 23.925781 55.824219 23.980469 C 55.566406 24.097656 55.328125 24.234375 55.082031 24.328125 C 54.835938 24.425781 54.597656 24.511719 54.378906 24.597656 C 54.148438 24.660156 53.925781 24.714844 53.722656 24.773438 C 53.515625 24.835938 53.316406 24.859375 53.136719 24.882812 C 52.953125 24.90625 52.789062 24.929688 52.636719 24.953125 C 52.335938 24.96875 52.097656 24.976562 51.933594 24.984375 C 51.773438 24.992188 51.6875 24.992188 51.6875 24.992188 C 51.6875 24.992188 52.019531 24.914062 52.605469 24.773438 C 52.75 24.722656 52.90625 24.675781 53.074219 24.613281 C 53.238281 24.550781 53.429688 24.511719 53.609375 24.425781 C 53.800781 24.34375 54 24.257812 54.210938 24.171875 C 54.417969 24.058594 54.632812 23.957031 54.84375 23.839844 C 55.28125 23.59375 55.730469 23.292969 56.183594 22.953125 C 56.410156 22.785156 56.625 22.582031 56.855469 22.390625 C 57.066406 22.183594 57.289062 21.972656 57.511719 21.757812 C 57.714844 21.527344 57.9375 21.296875 58.144531 21.054688 C 58.339844 20.800781 58.554688 20.5625 58.746094 20.292969 C 58.847656 20.160156 58.941406 20.03125 59.039062 19.898438 C 59.132812 19.765625 59.21875 19.621094 59.316406 19.488281 C 59.503906 19.21875 59.671875 18.925781 59.84375 18.640625 C 60.027344 18.363281 60.183594 18.0625 60.351562 17.777344 C 60.507812 17.476562 60.667969 17.191406 60.808594 16.890625 C 61.09375 16.296875 61.386719 15.714844 61.632812 15.128906 C 61.878906 14.542969 62.109375 13.980469 62.3125 13.433594 C 62.511719 12.886719 62.710938 12.375 62.867188 11.890625 C 63.191406 10.925781 63.453125 10.113281 63.617188 9.535156 C 63.785156 8.957031 63.878906 8.625 63.878906 8.625 C 63.878906 8.625 63.871094 8.972656 63.808594 9.566406 C 63.769531 9.882812 63.722656 10.246094 63.660156 10.65625 Z M 63.660156 10.65625 " fill-opacity="1" fill-rule="nonzero"/><g clip-path="url(#9650e0dc21)"><path fill="#80cc28" d="M 34.078125 25.351562 C 33.546875 24.613281 33.355469 23.6875 33.5625 22.800781 C 33.902344 21.289062 33.941406 18.464844 31.242188 14.898438 C 31.242188 14.898438 23.816406 4.398438 20.460938 0.988281 C 20.175781 0.703125 19.714844 1.050781 19.914062 1.402344 C 21.03125 3.378906 23.546875 7.507812 28.554688 14.566406 C 28.601562 14.636719 28.625 14.730469 28.59375 14.820312 C 28.53125 14.976562 28.425781 15.128906 28.277344 15.230469 C 28.148438 15.316406 28.007812 15.363281 27.875 15.386719 C 27.867188 15.386719 27.859375 15.386719 27.839844 15.386719 C 27.769531 15.386719 27.699219 15.355469 27.644531 15.300781 C 27.628906 15.285156 27.621094 15.277344 27.613281 15.261719 C 27.296875 14.804688 21.765625 6.75 18.671875 3.148438 C 18.394531 2.832031 17.90625 3.1875 18.109375 3.542969 C 19.691406 6.242188 22.761719 11.171875 26.617188 15.878906 L 26.65625 15.949219 C 26.640625 16.203125 26.511719 16.457031 26.28125 16.613281 C 26.101562 16.742188 25.894531 16.789062 25.699219 16.773438 C 25.632812 16.765625 25.5625 16.734375 25.523438 16.6875 L 25.5 16.664062 C 22.390625 11.433594 18.804688 6.859375 16.8125 4.453125 C 16.542969 4.128906 16.046875 4.476562 16.25 4.84375 C 18.632812 9.121094 24.574219 17.421875 24.574219 17.421875 L 24.628906 17.53125 C 24.582031 17.730469 24.464844 17.90625 24.28125 18.03125 C 24.097656 18.15625 23.886719 18.214844 23.679688 18.1875 L 23.664062 18.164062 C 18.695312 10.972656 15.648438 7.167969 14.164062 5.4375 C 13.902344 5.128906 13.417969 5.445312 13.59375 5.808594 C 15.640625 10.128906 22.976562 20.699219 22.976562 20.699219 C 25.40625 24.457031 28.070312 25.382812 29.613281 25.578125 C 30.515625 25.699219 31.316406 26.1875 31.828125 26.941406 L 37.542969 35.300781 C 37.675781 35.5 37.960938 35.507812 38.101562 35.320312 L 39.1875 33.871094 C 39.488281 33.476562 39.488281 32.929688 39.203125 32.527344 Z M 29.667969 24.304688 C 29.605469 24.320312 29.519531 24.351562 29.398438 24.359375 C 29.28125 24.375 29.140625 24.375 28.972656 24.359375 C 28.808594 24.34375 28.617188 24.304688 28.425781 24.234375 C 28.230469 24.171875 28.023438 24.082031 27.816406 23.980469 C 27.613281 23.871094 27.398438 23.75 27.191406 23.601562 C 26.988281 23.457031 26.78125 23.300781 26.582031 23.132812 C 26.386719 22.96875 26.1875 22.785156 26 22.597656 C 25.253906 21.84375 24.621094 21.007812 24.21875 20.332031 C 24.011719 20 23.863281 19.707031 23.757812 19.503906 C 23.671875 19.320312 23.625 19.203125 23.609375 19.179688 C 23.625 19.195312 23.71875 19.273438 23.871094 19.421875 C 24.035156 19.582031 24.265625 19.8125 24.535156 20.089844 C 25.082031 20.632812 25.777344 21.386719 26.496094 22.097656 C 26.851562 22.453125 27.214844 22.800781 27.574219 23.109375 C 27.746094 23.269531 27.921875 23.410156 28.09375 23.53125 C 28.261719 23.65625 28.425781 23.773438 28.585938 23.871094 C 28.742188 23.964844 28.894531 24.042969 29.027344 24.097656 C 29.164062 24.15625 29.289062 24.203125 29.398438 24.226562 C 29.511719 24.257812 29.597656 24.265625 29.652344 24.265625 C 29.71875 24.273438 29.75 24.28125 29.75 24.28125 C 29.75 24.28125 29.726562 24.289062 29.667969 24.304688 Z M 29.667969 24.304688 " fill-opacity="1" fill-rule="nonzero"/></g><path fill="#80cc28" d="M 42.1875 36.835938 L 40.484375 39.335938 C 40.167969 38.886719 39.90625 38.546875 39.71875 38.332031 C 39.472656 38.054688 39.234375 37.769531 39.027344 37.460938 L 38.253906 36.324219 L 38.109375 36.117188 L 38.253906 36.316406 L 40.089844 33.734375 L 40.097656 33.742188 L 41.511719 35.722656 C 41.726562 36.023438 41.917969 36.339844 42.097656 36.671875 C 42.113281 36.71875 42.144531 36.765625 42.1875 36.835938 C 42.179688 36.828125 42.179688 36.828125 42.1875 36.835938 Z M 42.1875 36.835938 " fill-opacity="1" fill-rule="nonzero"/><path fill="#80cc28" d="M 62.195312 61.523438 C 62.195312 61.523438 47.804688 44.597656 43.292969 38.453125 C 43.160156 38.269531 42.90625 38.253906 42.746094 38.410156 C 42.3125 38.832031 42.042969 39.363281 41.886719 39.84375 C 41.664062 40.523438 41.765625 41.269531 42.144531 41.871094 C 46.933594 49.441406 56.199219 65.722656 56.199219 65.722656 C 58.957031 70.574219 61.933594 68.152344 62.203125 67.914062 C 62.195312 67.921875 62.1875 67.921875 62.1875 67.921875 L 62.21875 67.898438 C 62.210938 67.90625 62.210938 67.90625 62.203125 67.914062 C 62.511719 67.742188 65.800781 65.769531 62.195312 61.523438 Z M 60.898438 67.34375 C 60.859375 67.363281 60.792969 67.394531 60.714844 67.410156 C 60.675781 67.417969 60.628906 67.425781 60.582031 67.441406 C 60.535156 67.449219 60.476562 67.449219 60.414062 67.457031 C 60.296875 67.464844 60.160156 67.457031 60.011719 67.433594 C 59.71875 67.386719 59.394531 67.257812 59.085938 67.085938 C 58.769531 66.902344 58.476562 66.664062 58.207031 66.402344 C 57.667969 65.882812 57.257812 65.265625 57.011719 64.773438 C 56.886719 64.527344 56.808594 64.308594 56.75 64.15625 C 56.703125 64.023438 56.679688 63.925781 56.679688 63.910156 C 56.695312 63.925781 56.765625 63.984375 56.871094 64.078125 C 56.988281 64.1875 57.15625 64.347656 57.34375 64.527344 C 57.734375 64.902344 58.207031 65.414062 58.699219 65.890625 C 59.1875 66.371094 59.695312 66.800781 60.136719 67.027344 C 60.25 67.09375 60.351562 67.140625 60.445312 67.179688 C 60.542969 67.21875 60.628906 67.242188 60.707031 67.257812 C 60.777344 67.28125 60.84375 67.289062 60.890625 67.296875 C 60.929688 67.304688 60.953125 67.3125 60.953125 67.3125 C 60.953125 67.3125 60.9375 67.328125 60.898438 67.34375 Z M 60.898438 67.34375 " fill-opacity="1" fill-rule="nonzero"/><path fill="#80cc28" d="M 75.796875 41.519531 C 73.066406 43.175781 69.65625 43.285156 66.5 42.820312 C 65.027344 42.605469 63.53125 42.273438 62.074219 42.566406 C 61.6875 42.644531 61.308594 42.78125 60.960938 42.96875 C 61.101562 41.804688 61.679688 40.667969 62.527344 39.835938 C 63.976562 38.402344 66.023438 37.753906 68.035156 37.421875 C 70.042969 37.089844 72.101562 37.027344 74.078125 36.542969 C 76.054688 36.0625 78.027344 35.082031 79.117188 33.363281 C 80.289062 36.324219 78.53125 39.867188 75.796875 41.519531 Z M 75.796875 41.519531 " fill-opacity="1" fill-rule="nonzero"/><path fill="#80cc28" d="M 69.671875 31.886719 C 69.546875 32.875 69.15625 33.871094 68.40625 34.535156 C 67.597656 35.253906 66.484375 35.5 65.414062 35.683594 C 64.347656 35.871094 63.238281 36.039062 62.34375 36.65625 C 61.925781 36.941406 61.570312 37.367188 61.363281 37.835938 C 61.492188 35.863281 63.007812 33.222656 64.671875 32.390625 C 65.621094 31.917969 66.6875 31.710938 67.644531 31.25 C 68.601562 30.785156 69.496094 29.945312 69.5625 28.886719 C 69.679688 29.882812 69.796875 30.886719 69.671875 31.886719 Z M 69.671875 31.886719 " fill-opacity="1" fill-rule="nonzero"/><path fill="#80cc28" d="M 4.492188 40.777344 C 7.222656 42.429688 10.632812 42.542969 13.789062 42.074219 C 15.261719 41.863281 16.757812 41.53125 18.214844 41.820312 C 18.601562 41.902344 18.980469 42.035156 19.328125 42.226562 C 19.1875 41.0625 18.609375 39.921875 17.761719 39.09375 C 16.3125 37.660156 14.265625 37.011719 12.253906 36.679688 C 10.246094 36.347656 8.1875 36.285156 6.210938 35.800781 C 4.234375 35.320312 2.261719 34.335938 1.171875 32.621094 C 0 35.585938 1.757812 39.132812 4.492188 40.777344 Z M 4.492188 40.777344 " fill-opacity="1" fill-rule="nonzero"/><path fill="#80cc28" d="M 10.617188 31.140625 C 10.746094 32.128906 11.132812 33.125 11.882812 33.792969 C 12.691406 34.511719 13.804688 34.757812 14.875 34.9375 C 15.941406 35.128906 17.050781 35.292969 17.945312 35.910156 C 18.363281 36.195312 18.71875 36.625 18.925781 37.089844 C 18.796875 35.121094 17.28125 32.476562 15.617188 31.648438 C 14.667969 31.171875 13.601562 30.96875 12.644531 30.507812 C 11.6875 30.042969 10.792969 29.203125 10.726562 28.140625 C 10.609375 29.140625 10.492188 30.144531 10.617188 31.140625 Z M 10.617188 31.140625 " fill-opacity="1" fill-rule="nonzero"/></svg>