
<svg version="1.1" id="Layer_1" xmlns="http://www.w3.org/2000/svg" xmlns:xlink="http://www.w3.org/1999/xlink" x="0px" y="0px"
	 width="100%" viewBox="0 0 900 450" enable-background="new 0 0 900 450" xml:space="preserve">

<path fill="#8AC24A" opacity="1.000000" stroke="none" 
	d="
M350.995361,237.832306 
	C350.080017,237.062057 349.447723,236.431396 348.689331,236.177765 
	C338.496246,232.768723 338.491882,232.781769 337.766510,221.002136 
	C336.050598,221.002136 334.284607,221.002136 332.518646,221.002136 
	C237.689514,221.002136 142.860382,221.014542 48.031307,220.946167 
	C44.981007,220.943970 43.118160,221.707153 41.137699,224.312912 
	C34.941685,232.465118 23.754854,233.158615 16.597713,226.299683 
	C9.942731,219.921951 10.233038,208.187363 17.193279,202.226074 
	C24.750355,195.753616 36.026970,197.036346 41.592091,205.488617 
	C43.440819,208.296478 45.534710,207.987595 47.935867,207.988220 
	C97.267014,208.001053 146.598160,207.997910 195.929306,207.997910 
	C241.593948,207.997910 287.258606,207.979263 332.923157,208.038879 
	C336.043030,208.042953 337.868896,206.674515 340.410645,204.861618 
	C345.575836,201.177612 350.455261,197.165115 355.554077,193.512650 
	C358.512177,191.393646 362.780121,190.520905 366.219269,188.099670 
	C372.103546,183.957016 379.390778,187.983749 379.982574,195.226181 
	C380.050201,196.054214 380.111328,196.909744 379.983795,197.722427 
	C379.152985,203.017776 381.756714,204.165176 386.570587,204.087036 
	C401.565979,203.843674 416.570190,204.146729 431.565704,203.908005 
	C436.113068,203.835602 438.634338,205.493500 440.273041,209.621307 
	C442.346893,214.845413 444.862793,219.894058 447.680725,226.104095 
	C450.590668,216.382935 452.993805,207.762085 455.826599,199.284805 
	C456.588196,197.005722 458.656769,195.163391 460.125366,193.120575 
	C461.951904,194.810898 464.848083,196.200058 465.423157,198.242706 
	C468.186462,208.057785 474.379547,210.876419 484.044739,209.652420 
	C491.267761,208.737686 498.672668,209.332306 505.989197,209.058167 
	C511.314087,208.858658 514.246277,206.099014 515.432739,200.668167 
	C518.565430,186.327972 513.281677,172.511810 501.348755,165.092545 
	C488.728241,157.245834 473.969299,158.314224 462.386505,167.912933 
	C455.754120,173.409241 455.875610,173.252655 449.240082,168.104095 
	C438.607269,159.854034 426.906067,156.933884 414.261292,162.968185 
	C401.562195,169.028381 394.812805,179.163956 394.983429,193.527481 
	C395.012054,195.938812 395.654510,199.092621 391.996460,199.301788 
	C388.217041,199.517899 388.076599,196.386307 388.020325,193.685486 
	C387.683990,177.546799 394.608368,165.254471 408.757874,157.787125 
	C423.171387,150.180435 437.679138,150.860413 451.090302,160.602127 
	C454.433411,163.030502 456.508179,163.527359 460.066071,160.834122 
	C474.191467,150.141342 493.915039,150.430344 507.921753,161.071671 
	C522.013794,171.777847 527.116516,189.713470 521.000305,206.701691 
	C519.171753,211.780685 515.556458,214.994431 510.393066,215.250946 
	C498.284149,215.852554 486.136719,215.657700 474.023071,216.195084 
	C468.185516,216.454071 465.009247,213.770645 463.081238,208.743774 
	C462.790192,207.985001 462.303314,207.301361 461.312103,205.504593 
	C458.686066,214.142990 456.404663,221.908524 453.946136,229.617584 
	C452.830963,233.114471 452.997192,238.307251 448.397949,238.718674 
	C443.494781,239.157272 443.439514,233.717621 441.899933,230.486832 
	C439.472351,225.392624 437.197845,220.199966 435.285980,214.894913 
	C434.106171,211.621140 431.944244,210.536209 428.877045,210.530258 
	C414.211151,210.501877 399.545013,210.554504 384.879333,210.492294 
	C381.076630,210.476181 379.703949,211.950226 379.907990,215.896149 
	C380.251801,222.544724 380.075409,229.225037 379.982635,235.890121 
	C379.869385,244.025223 373.672668,247.840164 366.326691,244.622421 
	C363.510956,243.389023 360.313446,243.041840 357.460358,241.874359 
	C355.243073,240.967041 353.290192,239.413498 350.995361,237.832306 
M368.400787,226.428604 
	C369.120544,230.346252 366.563019,235.024872 371.477783,238.890717 
	C372.142242,236.986664 372.970276,235.703308 372.981110,234.413101 
	C373.081757,222.423157 373.104126,210.431290 372.959839,198.442261 
	C372.942719,197.018188 371.792114,195.607742 371.166870,194.190979 
	C370.570312,194.315491 369.973724,194.440002 369.377136,194.564514 
	C367.312622,204.752548 368.900970,215.164673 368.400787,226.428604 
M356.342072,228.029404 
	C356.878784,230.161041 357.415466,232.292664 357.952148,234.424286 
	C358.648010,234.415894 359.343872,234.407516 360.039734,234.399124 
	C360.577667,232.688873 361.544464,230.987549 361.580292,229.266846 
	C361.746399,221.287750 361.807251,213.298080 361.536896,205.324707 
	C361.476288,203.537186 359.932495,201.799957 359.071472,200.039566 
	C358.163025,201.752304 356.541260,203.436111 356.470428,205.182816 
	C356.174103,212.488205 356.343140,219.812454 356.342072,228.029404 
M348.072693,227.584778 
	C350.534271,221.292130 350.385010,215.154358 347.484375,207.962051 
	C346.157471,209.745789 345.149567,210.474792 345.125946,211.234390 
	C344.976593,216.038544 344.941010,220.853897 345.145020,225.653793 
	C345.178894,226.451218 346.571411,227.190887 348.072693,227.584778 
z"/>
<path fill="#8AC24A" opacity="1.000000" stroke="none" 
	d="
M852.781189,221.002136 
	C759.370850,221.002136 666.429810,221.002136 573.003540,221.002136 
	C573.569275,228.856339 570.683105,233.546219 562.511963,233.766769 
	C561.469910,233.794907 560.587585,235.600677 559.426208,236.036209 
	C552.823669,238.512222 546.311951,241.691605 539.463928,242.897629 
	C534.501099,243.771683 531.649719,239.432632 531.500671,233.658630 
	C531.316284,226.512848 531.242310,227.152924 524.311218,226.351624 
	C513.895081,225.147446 506.887695,229.379974 499.369171,236.380829 
	C487.262146,247.654266 473.463043,257.109802 460.387054,267.343903 
	C457.335266,269.732391 454.152039,269.566895 451.133759,267.534821 
	C432.328461,254.874100 414.224487,241.367767 399.927094,223.483475 
	C398.247040,221.381973 394.415192,218.840347 397.760834,215.987503 
	C401.333405,212.941101 403.170074,217.114868 405.128387,219.366241 
	C418.879547,235.175461 434.992249,248.243118 452.396118,259.749512 
	C453.896759,260.741669 457.124878,260.887238 458.563263,259.934875 
	C473.420837,250.097534 487.737854,239.535660 499.726715,226.187332 
	C504.743805,220.601349 511.204498,219.096375 518.259216,219.602509 
	C534.442932,220.763580 531.183716,220.395798 531.480103,207.845291 
	C531.598083,202.849457 530.987000,197.770554 531.719177,192.880905 
	C532.127502,190.153824 534.036072,186.783875 536.302368,185.414154 
	C539.386841,183.550003 543.190491,183.962509 546.525452,186.645203 
	C548.563782,188.284805 551.445496,188.830185 553.818176,190.108734 
	C560.274475,193.587921 564.636658,199.979065 571.563538,202.937622 
	C572.523926,203.347824 572.559021,205.924301 573.169678,207.997833 
	C574.802246,207.997833 576.587463,207.997833 578.372742,207.997833 
	C670.179321,207.997833 761.985901,207.984360 853.792419,208.053726 
	C857.010437,208.056152 859.039001,207.406128 861.104431,204.489746 
	C866.407532,197.001785 877.539734,196.158340 884.506592,202.150879 
	C891.486206,208.154419 892.155396,219.138321 885.944336,225.749268 
	C879.581238,232.522217 868.859924,232.680298 862.344666,226.024597 
	C859.793457,223.418335 858.076721,219.436310 852.781189,221.002136 
M538.435425,192.750015 
	C536.370605,205.793228 537.694336,232.599930 540.972656,235.946671 
	C541.573853,234.416870 542.515198,233.122787 542.527039,231.820236 
	C542.639282,219.511215 542.614868,207.200684 542.573730,194.890778 
	C542.565979,192.557495 541.891907,190.782791 538.435425,192.750015 
M549.408020,203.158249 
	C549.408081,211.112915 549.231750,219.074448 549.539978,227.017166 
	C549.611511,228.860382 551.335571,230.639465 552.299255,232.448059 
	C553.212402,230.730331 554.853394,229.037918 554.914185,227.290543 
	C555.196106,219.179916 555.143921,211.051758 554.962585,202.935440 
	C554.920959,201.073654 553.895264,199.233841 553.322510,197.383926 
	C552.696533,197.362915 552.070618,197.341904 551.444641,197.320892 
	C550.768005,198.985626 550.091370,200.650360 549.408020,203.158249 
M562.459412,224.382339 
	C565.341370,227.422363 565.797729,224.339401 565.895691,222.703445 
	C566.162659,218.244308 566.065857,213.754440 565.890625,209.285492 
	C565.856506,208.417160 564.816528,207.588257 563.681091,205.918442 
	C560.786377,212.300323 562.417847,218.061310 562.459412,224.382339 
z"/>

</svg>